<?xml version="1.0" standalone="no"?>
<!DOCTYPE svg PUBLIC "-//W3C//DTD SVG 20010904//EN"
 "http://www.w3.org/TR/2001/REC-SVG-20010904/DTD/svg10.dtd">
<svg version="1.0" xmlns="http://www.w3.org/2000/svg"
 width="638.000000pt" height="630.000000pt" viewBox="0 0 638.000000 630.000000"
 preserveAspectRatio="xMidYMid meet">

<g transform="translate(0.000000,630.000000) scale(0.100000,-0.100000)"
fill="#000000" stroke="none">
<path d="M2985 6035 c-71 -63 -137 -114 -147 -114 -9 -1 -83 35 -166 79 -82
44 -155 80 -163 80 -8 0 -63 -63 -123 -140 -60 -77 -117 -140 -125 -140 -9 0
-86 20 -171 45 -85 25 -162 45 -172 45 -11 0 -41 -50 -97 -166 l-81 -166 -112
8 c-62 5 -149 9 -192 9 l-80 0 -37 -159 c-20 -87 -42 -169 -47 -181 -9 -19
-23 -23 -114 -34 -56 -6 -139 -17 -183 -24 l-80 -13 -6 -129 c-4 -72 -7 -158
-8 -191 -1 -55 -3 -62 -24 -67 -12 -3 -80 -26 -152 -52 -71 -26 -141 -49 -154
-52 -22 -6 -23 -8 -16 -66 3 -33 15 -101 25 -151 10 -50 20 -109 22 -131 l3
-39 -148 -91 c-81 -50 -152 -96 -159 -103 -8 -8 -4 -26 17 -74 15 -34 48 -112
72 -172 l43 -110 -137 -131 -137 -131 69 -100 c37 -54 86 -125 108 -156 l39
-56 -39 -54 c-21 -29 -70 -99 -108 -156 l-69 -103 138 -132 138 -132 -47 -110
c-77 -182 -97 -236 -91 -242 3 -3 74 -47 158 -98 l153 -93 -3 -38 c-2 -22 -12
-82 -22 -134 -11 -52 -22 -120 -26 -151 l-6 -55 166 -59 c91 -32 170 -61 175
-65 6 -3 13 -88 17 -193 l7 -187 31 -5 c70 -11 235 -34 289 -40 31 -3 57 -7
57 -8 0 -13 90 -360 94 -364 5 -5 203 9 323 23 l52 7 82 -172 c45 -94 88 -171
94 -171 7 0 31 6 53 14 51 18 287 86 299 86 5 0 58 -65 118 -144 61 -80 117
-145 125 -145 9 -1 24 5 35 12 11 8 61 35 110 62 50 26 111 59 137 72 l47 25
29 -23 c17 -13 82 -68 146 -122 l116 -99 145 122 145 122 161 -86 c89 -47 167
-86 173 -85 6 0 60 65 120 145 61 79 114 144 118 144 10 0 105 -27 233 -65 50
-15 99 -30 111 -32 18 -4 31 17 102 167 l83 172 47 -5 c113 -14 323 -29 328
-24 4 4 94 351 94 364 0 1 26 5 58 8 55 6 221 30 290 41 l32 5 0 83 c0 46 3
131 6 189 l7 106 61 21 c34 12 77 28 96 35 19 8 70 26 114 41 l78 27 -6 56
c-4 31 -15 99 -26 151 -10 52 -20 112 -22 134 l-3 38 153 93 c84 51 155 95
158 98 6 6 -14 60 -91 242 l-47 110 138 132 138 132 -107 157 c-93 138 -105
160 -95 176 7 10 55 80 107 155 l94 138 -137 130 -137 131 55 134 c30 74 62
152 71 174 11 27 13 42 6 49 -6 6 -77 51 -158 101 l-148 91 3 40 c2 22 12 81
22 131 10 50 22 118 26 151 6 55 4 62 -12 65 -11 1 -90 28 -176 58 l-158 55
-1 55 c-1 30 -4 116 -8 190 l-6 134 -80 13 c-44 7 -127 18 -183 24 -91 11
-105 15 -114 34 -5 12 -27 94 -47 181 l-37 159 -80 0 c-43 0 -131 -4 -196 -8
-115 -9 -116 -9 -123 14 -4 12 -39 87 -78 166 -47 96 -75 143 -86 143 -9 0
-86 -20 -171 -45 -85 -25 -162 -45 -171 -45 -8 0 -65 63 -125 140 -60 77 -115
140 -123 140 -8 0 -81 -36 -163 -80 -83 -44 -157 -80 -165 -80 -13 0 -119 86
-237 192 -22 21 -48 37 -56 37 -8 0 -73 -51 -145 -114z m238 -600 l20 -59 29
57 c25 50 32 57 58 57 28 0 30 -2 25 -29 -3 -16 -22 -64 -42 -108 -20 -43 -40
-98 -43 -123 -5 -44 -6 -45 -40 -45 -35 0 -35 0 -32 42 2 28 -7 75 -27 137
-17 52 -31 100 -31 106 0 11 39 30 54 26 6 -1 19 -29 29 -61z m-169 34 c21
-16 26 -29 26 -64 0 -24 -8 -57 -17 -74 -15 -25 -16 -34 -5 -48 35 -51 37 -64
12 -84 -14 -10 -28 -19 -33 -19 -4 0 -20 20 -35 45 -35 58 -50 58 -54 -2 -3
-45 -5 -48 -32 -51 -16 -2 -32 1 -36 7 -3 6 -6 73 -6 148 l1 137 45 12 c68 18
104 16 134 -7z m-299 -42 c18 -28 105 -237 105 -253 0 -12 -31 -24 -63 -24
-10 0 -22 11 -27 25 -5 14 -14 25 -20 25 -23 0 -50 -22 -50 -40 0 -23 -28 -40
-64 -40 -32 0 -32 -3 -6 170 21 145 29 160 82 160 18 0 33 -8 43 -23z m997
-15 c27 -26 18 -92 -12 -92 -34 0 -50 12 -50 37 0 15 -5 23 -12 21 -25 -9 -19
-39 16 -80 25 -29 36 -51 36 -73 0 -41 -32 -82 -69 -90 -31 -7 -93 14 -123 42
-17 15 -17 17 -2 35 21 22 37 23 54 3 14 -17 46 -20 55 -5 4 6 -6 27 -22 46
-50 64 -55 79 -39 117 20 50 52 69 105 64 25 -3 52 -13 63 -25z m-1253 -36
c22 -26 101 -265 90 -272 -6 -3 -23 -9 -37 -14 -24 -6 -29 -3 -43 29 -17 37
-18 36 -34 -14 -7 -22 -42 -18 -60 8 l-17 22 6 -22 c3 -13 8 -32 11 -42 7 -22
-19 -41 -54 -41 -14 0 -23 9 -27 28 -10 43 -55 195 -66 222 -12 29 10 50 54
50 21 0 33 -9 52 -39 14 -22 29 -42 35 -45 5 -3 12 22 16 57 4 34 12 68 17 75
14 16 43 15 57 -2z m1455 -6 c41 -15 66 -47 66 -83 0 -50 -18 -69 -58 -61 -35
7 -35 9 -21 64 7 28 -24 15 -54 -22 -38 -47 -51 -128 -21 -128 11 0 30 7 42
16 49 34 73 -18 26 -55 -36 -28 -116 -29 -143 -2 -64 64 -4 229 99 270 32 13
34 13 64 1z m214 -83 c10 -7 7 -20 -13 -56 -25 -43 -25 -46 -9 -58 28 -21 38
-16 64 32 14 25 28 45 32 45 19 0 58 -21 58 -31 0 -12 -116 -247 -129 -262
-12 -12 -71 14 -71 31 0 10 11 36 25 60 l24 43 -22 8 c-32 12 -41 6 -65 -44
-12 -25 -26 -45 -31 -45 -23 0 -61 21 -61 32 0 11 104 211 133 256 9 13 41 8
65 -11z m-1903 -123 c28 -71 53 -134 57 -141 8 -12 -32 -43 -55 -43 -12 0 -57
83 -57 105 0 3 -9 27 -21 52 -27 60 -32 133 -10 150 9 7 21 11 26 9 6 -1 33
-61 60 -132z m-184 36 c28 -16 49 -63 49 -115 0 -25 3 -45 8 -45 4 -1 20 -11
36 -24 27 -23 28 -26 16 -55 -7 -17 -15 -31 -19 -31 -3 0 -23 11 -43 25 -39
26 -68 32 -68 15 0 -6 7 -25 16 -42 16 -30 15 -32 -7 -49 -13 -10 -28 -19 -32
-19 -10 0 -127 243 -127 263 0 16 107 87 132 87 11 0 28 -5 39 -10z m2394 -75
c38 -37 34 -96 -10 -162 -59 -88 -124 -119 -184 -88 -58 29 -63 90 -14 172 55
95 155 132 208 78z m-2597 -96 c44 -43 45 -99 2 -158 l-31 -42 21 -33 c26 -42
26 -43 -9 -60 l-29 -15 -76 114 c-42 63 -76 119 -76 123 0 5 22 30 50 56 62
58 100 62 148 15z m2808 -53 c39 -39 42 -62 14 -114 -23 -43 -43 -67 -88 -104
-45 -37 -108 -39 -149 -4 -66 57 -8 177 117 243 41 21 70 15 106 -21z m-1191
-35 c365 -78 659 -230 913 -475 306 -295 491 -648 553 -1051 15 -101 15 -457
0 -550 -18 -109 -52 -242 -84 -330 -16 -44 -31 -89 -35 -100 -11 -38 -114
-230 -160 -300 -203 -305 -474 -532 -812 -681 -106 -46 -213 -79 -380 -116
-93 -20 -132 -23 -345 -23 -212 0 -252 3 -345 23 -240 52 -439 131 -625 247
-124 78 -185 126 -292 229 -321 308 -503 674 -558 1118 -20 167 -19 284 5 448
46 326 145 572 338 845 75 105 264 294 382 383 268 199 530 304 895 356 17 2
125 3 240 1 166 -3 231 -8 310 -24z m1355 -117 c0 -7 -31 -41 -70 -77 -38 -36
-70 -69 -70 -74 0 -5 14 -22 30 -38 36 -35 37 -45 5 -75 l-25 -23 -27 24 c-16
13 -47 42 -71 64 l-43 40 113 106 113 107 23 -21 c12 -11 22 -26 22 -33z
m-3336 -20 c20 -19 20 -20 -1 -55 l-17 -29 50 -53 c27 -28 63 -67 79 -85 l29
-32 -26 -26 -25 -26 -21 23 c-12 12 -18 27 -15 33 3 6 2 8 -2 3 -5 -4 -35 18
-66 49 l-57 57 -24 -27 -23 -27 -29 30 -29 30 69 75 c38 41 74 75 81 75 6 1
19 -6 27 -15z m-159 -221 c22 -20 70 -60 107 -89 37 -30 69 -58 72 -63 4 -5
-4 -21 -16 -35 l-23 -26 -65 20 c-36 11 -69 20 -75 20 -5 -1 14 -22 44 -48
l54 -48 -18 -28 c-10 -15 -23 -26 -30 -24 -18 4 -225 187 -225 198 0 5 11 21
23 36 23 26 26 27 70 16 68 -18 71 -15 27 24 -39 35 -39 36 -22 60 23 31 30
30 77 -13z m3783 -79 c37 -39 40 -61 11 -98 -25 -31 -40 -33 -64 -6 -17 19
-17 21 -2 38 22 24 21 32 -2 32 -23 0 -31 -19 -31 -71 0 -45 -21 -94 -45 -103
-43 -16 -83 -6 -113 28 -30 35 -49 87 -37 106 3 5 17 10 31 10 19 0 26 -6 30
-30 4 -16 13 -35 21 -42 22 -18 33 6 33 73 0 62 15 83 66 99 41 12 64 3 102
-36z m-3968 -122 l22 -18 -27 -53 c-25 -51 -27 -81 -5 -81 6 0 18 16 27 35 12
24 23 35 39 35 38 0 45 -21 23 -69 -33 -75 3 -87 41 -14 30 55 39 60 71 34
l23 -19 -44 -86 c-25 -47 -51 -86 -58 -86 -15 0 -213 133 -233 156 -10 12 -4
30 32 99 24 47 49 85 55 85 7 0 22 -8 34 -18z m4080 -33 c6 -11 10 -25 8 -31
-2 -5 -44 -31 -93 -56 -68 -36 -90 -52 -90 -67 0 -34 37 -28 126 19 46 25 89
46 95 46 6 0 16 -12 23 -27 15 -34 11 -38 -104 -98 -72 -38 -96 -46 -124 -41
-64 10 -121 89 -101 140 10 28 66 66 132 93 24 9 54 23 68 30 35 18 48 16 60
-8z m-4183 -218 c95 -38 203 -91 203 -101 0 -5 -5 -21 -12 -35 -12 -27 -26
-29 -72 -10 -17 7 -17 6 -3 -21 19 -39 12 -54 -26 -54 l-32 0 33 -20 c36 -22
39 -35 17 -68 l-16 -22 -47 24 c-26 13 -78 38 -117 57 -97 46 -105 54 -92 84
18 37 38 44 92 34 27 -5 50 -7 53 -5 2 3 -15 28 -39 55 -38 46 -41 54 -31 76
14 30 27 31 89 6z m4333 -65 c38 -76 36 -107 -13 -137 -25 -16 -43 -19 -79
-15 -45 5 -49 3 -77 -30 -26 -33 -31 -35 -52 -23 -38 20 -39 31 -7 71 17 22
27 45 24 53 -5 14 -10 14 -43 0 -36 -15 -39 -15 -55 6 -21 25 -22 35 -5 46 24
15 232 91 253 92 16 1 29 -14 54 -63z m72 -193 c26 -24 23 -36 -23 -72 -22
-19 -37 -37 -32 -42 4 -4 31 -9 58 -11 49 -3 50 -4 53 -37 l3 -34 -103 8
c-130 10 -172 9 -176 -4 -7 -21 -30 -11 -42 18 -15 37 -9 47 32 55 18 3 71 35
118 70 47 36 87 65 89 65 3 1 13 -6 23 -16z m-4547 -21 c22 -10 82 -31 133
-47 79 -25 92 -32 92 -51 0 -45 -10 -54 -59 -55 -58 -2 -109 -12 -96 -20 6 -4
34 -14 63 -23 42 -14 52 -22 52 -40 0 -12 -6 -30 -12 -39 -12 -16 -18 -15 -78
9 -185 72 -205 82 -208 102 -5 34 16 62 46 62 35 0 72 10 72 20 0 4 -18 12
-40 19 -40 12 -48 28 -34 65 8 20 19 20 69 -2z m-38 -283 c15 -6 38 -20 50
-31 20 -19 28 -20 68 -11 50 11 63 4 67 -37 3 -19 -4 -25 -46 -39 -58 -19 -70
-38 -29 -46 46 -10 58 -21 56 -50 -1 -15 -4 -30 -7 -32 -3 -3 -67 10 -143 30
l-138 35 1 71 c2 60 6 76 25 97 24 26 52 30 96 13z m4608 -28 c79 -17 80 -18
89 -54 7 -26 6 -40 -3 -51 -7 -8 -71 -38 -143 -66 -142 -56 -148 -55 -148 6 0
26 5 33 26 38 20 5 24 11 18 29 -9 32 -23 45 -47 49 -18 2 -23 11 -25 42 l-3
39 78 -7 c43 -4 114 -15 158 -25z m-4694 -236 c1 -8 3 -19 4 -25 1 -5 3 -30 4
-55 1 -31 5 -45 15 -45 17 0 26 22 26 66 0 31 3 34 29 34 24 0 29 -5 35 -31 3
-17 6 -42 6 -55 0 -17 6 -24 20 -24 18 0 20 7 20 61 l0 60 38 -3 37 -3 -3 -95
c-2 -52 -7 -98 -10 -101 -7 -7 -221 15 -269 26 -22 5 -23 10 -23 105 l0 100
35 0 c24 0 35 -5 36 -15z m4814 -35 c0 -30 -3 -35 -25 -37 -14 0 -32 -2 -40
-2 -9 -1 6 -19 35 -45 50 -44 50 -44 31 -65 -25 -28 -41 -27 -85 7 -20 16 -41
32 -47 35 -7 4 -34 -11 -60 -33 -27 -22 -54 -40 -60 -40 -6 0 -21 11 -33 24
l-22 23 53 44 52 44 -55 5 c-52 5 -54 6 -57 37 -4 39 3 41 183 39 l130 -1 0
-35z m-125 -215 c69 -9 129 -20 133 -24 5 -5 7 -21 5 -37 -3 -29 -4 -29 -60
-26 l-58 4 0 -31 c0 -29 3 -31 34 -31 50 0 86 -16 86 -39 0 -42 -10 -51 -53
-45 -23 3 -91 9 -152 12 l-110 7 0 40 0 40 63 -3 63 -4 -3 29 c-3 26 -7 28
-65 36 -66 9 -70 14 -57 65 8 27 11 27 174 7z m-4591 -40 c140 -39 141 -39
141 -79 0 -40 4 -38 -153 -77 -154 -38 -157 -38 -157 5 0 33 1 33 60 46 89 19
92 32 10 54 -39 10 -72 22 -75 26 -3 5 -3 21 1 36 6 24 10 26 42 20 20 -3 79
-17 131 -31z m4506 -215 c33 -6 90 -19 128 -28 l67 -16 0 -41 c0 -39 -16 -155
-23 -161 -2 -2 -16 0 -33 5 -28 7 -29 9 -29 72 0 52 -3 64 -17 67 -13 2 -18
-3 -18 -20 0 -50 -11 -68 -41 -68 -28 0 -29 1 -29 55 0 47 -3 55 -18 55 -15 0
-21 -12 -28 -57 -7 -47 -13 -59 -29 -61 -11 -1 -27 3 -36 10 -14 11 -15 24 -8
98 12 104 14 113 36 106 10 -2 45 -10 78 -16z m-4400 -26 c32 -15 65 -64 65
-97 0 -21 -38 -65 -70 -82 -43 -22 -152 -20 -198 4 -38 19 -62 55 -62 90 0 26
37 70 74 86 43 19 150 19 191 -1z m4415 -234 c69 -22 130 -42 137 -44 8 -4 9
-14 3 -37 -5 -17 -11 -34 -14 -36 -2 -3 -46 9 -97 26 -51 17 -98 31 -105 31
-7 0 -18 -23 -25 -51 -13 -49 -14 -50 -43 -45 -48 10 -51 18 -30 110 13 62 23
86 34 86 8 0 71 -18 140 -40z m-4372 6 c40 -21 59 -46 67 -89 7 -34 4 -40 -28
-71 -73 -69 -237 -61 -277 14 -6 10 -10 34 -10 54 0 39 36 76 76 76 25 0 28
-3 37 -41 6 -21 2 -28 -21 -38 -26 -12 -26 -13 -7 -27 33 -25 147 -10 159 21
6 17 -13 32 -23 18 -3 -6 -20 -12 -38 -15 -26 -3 -33 0 -42 19 -18 39 -13 69
12 81 31 15 63 14 95 -2z m360 -609 c17 -20 1 -33 -52 -40 -63 -9 -119 -41
-152 -89 -28 -40 -64 -51 -64 -20 0 20 44 85 78 115 43 38 168 61 190 34z
m3536 -28 c21 -6 56 -27 77 -47 38 -36 80 -125 72 -149 -10 -28 -34 -10 -59
42 -30 65 -80 104 -143 112 -35 5 -41 9 -41 29 0 19 5 24 28 24 15 0 44 -5 66
-11z m-3519 -69 c4 -12 1 -28 -6 -36 -10 -13 -8 -13 14 -5 30 12 52 -7 43 -37
-5 -15 -1 -18 16 -18 16 1 24 -5 26 -19 2 -16 -14 -28 -83 -63 -96 -47 -103
-49 -121 -24 -10 14 -10 20 3 35 15 16 14 17 -14 11 -26 -5 -32 -3 -38 17 -6
19 4 33 63 91 38 37 74 68 80 68 6 0 14 -9 17 -20z m3430 -61 c0 -28 9 -42 53
-83 28 -27 52 -55 52 -63 0 -30 -32 -25 -78 14 -66 55 -71 58 -86 38 -11 -15
-15 -16 -34 -4 -12 8 -22 18 -22 22 0 16 93 118 104 114 6 -2 11 -19 11 -38z
m-3234 -156 c46 -43 48 -47 33 -64 -16 -18 -18 -17 -52 11 -19 16 -39 27 -44
24 -10 -6 9 -44 22 -44 14 0 12 -26 -3 -38 -9 -8 -19 -5 -37 8 -25 20 -50 26
-50 13 0 -4 14 -21 30 -38 29 -30 30 -32 13 -48 -17 -15 -22 -13 -71 30 -28
24 -52 48 -52 53 0 8 147 140 156 140 3 0 27 -21 55 -47z m3123 8 c14 -16 15
-20 2 -30 -9 -7 -24 -10 -37 -6 -16 5 -20 3 -17 -6 3 -9 18 -13 39 -12 76 6
119 -29 100 -81 -14 -34 -70 -69 -88 -54 -19 16 -16 27 12 40 14 6 25 17 25
25 0 11 -11 12 -48 7 -38 -5 -50 -3 -64 13 -29 31 -31 66 -8 96 25 31 60 35
84 8z m-156 -103 c17 -17 15 -23 -18 -62 -35 -40 -23 -61 15 -26 41 39 61 4
25 -43 -29 -37 -5 -46 30 -12 25 24 32 26 45 15 8 -7 15 -18 15 -25 0 -12 -90
-95 -103 -95 -5 0 -127 156 -127 164 0 6 93 95 101 96 3 0 10 -5 17 -12z
m-2728 -108 c34 -18 44 -48 25 -76 -13 -20 -19 -23 -36 -14 -14 8 -18 17 -14
31 4 10 2 19 -3 19 -15 0 -20 -22 -11 -45 34 -87 -46 -142 -112 -76 -16 16
-29 34 -29 41 0 22 31 22 54 1 30 -28 42 -13 26 34 -22 66 39 118 100 85z
m2590 -40 c11 -11 20 -29 20 -41 0 -12 11 -30 26 -41 39 -31 30 -74 -24 -115
-24 -18 -47 -33 -50 -33 -10 0 -102 159 -102 175 0 15 78 75 97 75 7 0 22 -9
33 -20z m-2435 -67 c56 -32 62 -39 54 -55 -8 -14 -17 -18 -37 -14 -24 5 -32
-1 -71 -59 -46 -69 -48 -70 -71 -55 -12 8 -11 15 8 52 13 24 30 56 40 71 16
27 16 29 0 38 -21 12 -23 30 -6 47 16 16 9 17 83 -25z m207 -120 c27 -24 22
-52 -17 -89 -25 -23 -35 -41 -35 -62 0 -21 -6 -31 -20 -35 -24 -6 -26 -3 -36
47 l-7 40 -22 -29 c-15 -18 -29 -26 -39 -22 -23 9 -20 31 11 80 14 23 37 59
50 80 l23 37 37 -15 c21 -9 45 -23 55 -32z m1936 22 c1 -14 -9 -27 -33 -43
-19 -12 -35 -27 -35 -32 0 -13 27 -13 35 0 9 15 42 12 48 -5 4 -9 -6 -24 -26
-39 -40 -31 -28 -45 19 -22 37 17 64 10 64 -18 0 -16 -120 -80 -130 -70 -15
16 -82 186 -75 192 16 17 102 60 115 58 8 0 16 -10 18 -21z m-1798 -79 c0 -14
-91 -196 -98 -196 -4 0 -16 6 -26 13 -17 13 -16 17 14 78 52 104 71 129 92
118 10 -5 18 -11 18 -13z m1640 -76 c23 -71 30 -104 23 -111 -19 -19 -47 -5
-57 29 -6 22 -14 32 -25 30 -17 -4 -18 -14 -7 -66 7 -28 5 -33 -16 -41 -20 -8
-25 -5 -39 28 -8 20 -24 67 -34 105 -15 57 -16 69 -4 77 25 16 38 9 47 -23 5
-20 16 -34 27 -36 16 -4 17 1 11 46 -7 51 -6 52 34 61 3 0 21 -44 40 -99z
m-1560 0 l5 -55 25 35 c29 42 39 50 57 43 23 -9 14 -33 -44 -114 -42 -59 -62
-79 -79 -79 -13 0 -26 5 -29 11 -4 5 -1 57 6 115 11 98 13 105 33 102 18 -3
22 -12 26 -58z m1340 0 c0 -10 -9 -22 -21 -25 -15 -5 -19 -13 -15 -28 19 -74
28 -127 23 -141 -8 -20 -47 -21 -47 -1 0 8 -8 42 -17 76 -15 55 -19 60 -42 57
-22 -2 -27 2 -29 24 -3 24 1 27 55 43 32 9 63 17 68 19 16 5 25 -4 25 -24z
m-1047 -30 c5 -4 7 -16 5 -26 -3 -16 -12 -19 -50 -16 -55 3 -72 -14 -26 -26
23 -6 33 -14 33 -28 0 -15 -7 -19 -37 -19 -54 0 -57 -22 -5 -32 42 -9 55 -26
39 -51 -7 -11 -21 -11 -76 -1 l-68 13 6 40 c4 23 16 70 27 104 l21 64 62 -7
c33 -4 65 -11 69 -15z m694 -28 c24 -15 32 -56 17 -92 -14 -31 -13 -36 5 -61
19 -26 20 -27 1 -44 -17 -16 -19 -15 -41 14 -31 41 -51 41 -47 -1 2 -28 -1
-34 -19 -36 -28 -4 -35 31 -31 138 3 74 3 75 33 81 43 9 68 10 82 1z m-379
-29 c-3 -25 -7 -28 -46 -31 -34 -3 -43 -7 -40 -20 2 -11 15 -18 36 -20 42 -4
46 -39 5 -48 -49 -10 -51 -12 -55 -41 -2 -21 -9 -29 -27 -31 l-24 -4 6 89 c10
136 8 133 84 133 64 0 64 0 61 -27z m179 1 c23 -23 25 -31 21 -91 -4 -57 -8
-69 -32 -89 -35 -31 -61 -30 -91 1 -20 19 -25 34 -25 75 0 108 67 164 127 104z"/>
<path d="M2956 5404 c-22 -22 -21 -54 2 -54 25 0 56 35 49 55 -8 19 -31 19
-51 -1z"/>
<path d="M2710 5300 c0 -20 5 -30 14 -30 12 0 13 6 5 30 -6 17 -13 30 -15 30
-2 0 -4 -13 -4 -30z"/>
<path d="M2800 5210 c0 -5 5 -10 10 -10 6 0 10 5 10 10 0 6 -4 10 -10 10 -5 0
-10 -4 -10 -10z"/>
<path d="M2008 5114 c-13 -13 -14 -22 -6 -40 14 -30 24 -30 43 0 28 42 -2 74
-37 40z"/>
<path d="M4392 5075 c-27 -20 -82 -98 -82 -119 0 -28 19 -26 55 5 40 35 65 77
65 109 0 24 -8 25 -38 5z"/>
<path d="M1785 4971 c-16 -18 -16 -21 0 -45 21 -31 31 -33 45 -7 15 29 12 49
-9 60 -14 8 -22 6 -36 -8z"/>
<path d="M1827 4749 c4 -13 8 -18 11 -10 2 7 -1 18 -6 23 -8 8 -9 4 -5 -13z"/>
<path d="M4562 4886 c-54 -55 -61 -78 -28 -84 22 -5 116 92 116 119 0 33 -31
21 -88 -35z"/>
<path d="M2220 4481 c-7 -13 -10 -356 -10 -1040 0 -987 1 -1021 19 -1030 12
-7 342 -10 934 -11 817 0 917 2 931 16 14 14 16 124 16 1030 0 681 -3 1022
-10 1035 -10 19 -31 19 -940 19 -909 0 -930 0 -940 -19z m565 -340 c30 -31 66
-74 81 -96 64 -94 119 -249 139 -390 10 -69 -9 -48 -29 33 -49 193 -158 373
-274 452 -32 21 -34 22 -47 4 -12 -17 -8 -24 34 -65 108 -106 202 -294 246
-493 5 -26 4 -28 -9 -17 -9 8 -16 19 -16 26 0 25 -63 160 -129 278 -85 152
-261 302 -261 222 0 -8 -10 -21 -22 -29 -13 -10 -18 -19 -13 -24 6 -5 44 -36
86 -70 114 -93 224 -240 296 -394 34 -73 14 -56 -46 38 -75 118 -170 234 -242
294 -106 89 -147 100 -170 48 -15 -36 -58 -56 -45 -22 4 11 10 49 13 87 3 37
8 67 10 67 2 0 18 -7 35 -16 30 -15 32 -15 45 1 7 10 18 45 24 77 7 33 17 58
24 58 7 0 29 -11 49 -25 20 -14 41 -25 46 -25 5 0 14 19 21 43 6 23 13 45 16
50 6 10 72 -43 138 -112z m1070 -138 c-3 -10 -10 -37 -14 -59 l-8 -41 64 5
c66 5 73 0 48 -35 -8 -12 -20 -44 -26 -72 -6 -28 -14 -51 -19 -51 -9 0 -22 33
-25 65 -4 40 -166 16 -345 -50 -42 -15 -273 -129 -295 -144 -23 -17 -105 -61
-105 -57 0 15 261 177 360 224 81 38 150 64 220 83 77 20 80 22 80 50 0 27 -2
29 -27 23 -184 -45 -432 -166 -635 -312 -27 -19 -48 -31 -48 -27 0 8 14 22 75
70 28 22 52 43 55 46 15 19 212 145 279 179 115 57 258 104 365 119 4 0 5 -7
1 -16z m-1446 -155 c170 -97 285 -171 351 -227 68 -57 82 -73 125 -138 43 -64
85 -94 138 -100 35 -4 52 2 102 33 91 56 134 79 197 102 76 28 315 69 460 78
l116 7 4 38 3 38 -48 6 c-101 14 -311 -20 -467 -76 -59 -21 -59 -21 -164 -69
-107 -49 -88 -29 31 32 228 117 371 158 586 165 103 4 147 2 147 -5 0 -6 -13
-33 -30 -59 -16 -26 -30 -52 -30 -59 0 -7 24 -15 60 -19 l60 -7 0 -91 c-1
-198 -19 -840 -25 -845 -3 -3 -78 5 -168 17 -136 20 -189 23 -327 18 -183 -5
-240 -18 -373 -81 -42 -20 -82 -36 -90 -36 -28 0 -82 52 -151 147 -90 122
-187 207 -300 263 l-50 25 -37 110 c-120 362 -259 788 -259 796 0 15 8 12 139
-63z m648 -384 c17 -15 21 -24 11 -20 -44 14 -86 16 -111 7 -22 -8 -27 -8 -27
4 0 40 86 47 127 9z"/>
<path d="M2222 2243 c3 -108 3 -108 28 -108 22 0 25 5 28 37 l3 36 67 -39 c63
-37 127 -51 145 -32 4 3 -26 26 -65 49 -40 24 -73 49 -73 55 0 6 29 29 65 50
90 55 92 59 35 59 -42 0 -60 -7 -110 -40 l-60 -40 -5 37 c-4 33 -9 38 -33 41
l-28 3 3 -108z"/>
<path d="M2527 2343 c-4 -3 -7 -50 -7 -104 0 -90 2 -98 21 -104 27 -9 37 2 41
44 l3 35 103 2 c82 2 108 6 123 20 28 25 24 68 -7 93 -24 19 -40 21 -149 21
-67 0 -125 -3 -128 -7z m241 -60 c3 -10 -20 -13 -92 -13 -88 0 -108 5 -89 24
13 12 176 2 181 -11z"/>
<path d="M2882 2343 c-35 -14 -52 -106 -30 -165 14 -38 63 -49 185 -46 l98 3
3 28 3 27 -120 0 c-158 0 -161 18 -3 22 l117 3 3 28 3 27 -120 0 c-101 0 -121
2 -121 15 0 13 20 15 120 15 l120 0 0 25 0 25 -122 -1 c-68 0 -129 -3 -136 -6z"/>
<path d="M3193 2340 c-43 -17 -43 -105 0 -115 12 -2 67 -7 122 -9 115 -5 105
-3 105 -16 0 -6 -48 -10 -125 -10 l-125 0 0 -25 0 -25 139 0 c133 0 141 1 155
22 22 32 20 55 -9 83 -23 24 -31 25 -135 25 -85 0 -111 3 -108 13 3 8 41 13
132 15 125 3 127 3 124 25 -3 21 -7 22 -128 24 -69 1 -135 -2 -147 -7z"/>
<path d="M3520 2330 c-16 -16 -20 -33 -20 -89 0 -99 2 -101 161 -101 l129 0 0
25 0 25 -120 0 c-157 0 -159 18 -2 22 l117 3 3 27 3 27 -118 3 c-156 4 -156
22 0 26 l117 3 0 24 0 25 -125 0 c-112 0 -127 -2 -145 -20z"/>
<path d="M3810 2245 l0 -105 134 0 c161 0 166 3 166 106 0 56 -3 65 -26 83
-24 19 -40 21 -150 21 l-124 0 0 -105z m240 0 l0 -55 -95 0 -95 0 0 48 c0 27
3 52 7 55 3 4 46 7 95 7 l88 0 0 -55z"/>
<path d="M2417 1942 c-23 -25 -47 -87 -47 -119 1 -39 37 -116 52 -110 14 4 14
25 3 94 -5 30 -3 54 9 83 26 65 18 91 -17 52z"/>
<path d="M3855 1950 c-3 -5 1 -30 10 -55 20 -61 19 -71 -10 -121 -20 -34 -22
-44 -11 -53 26 -22 76 64 76 131 0 62 -45 130 -65 98z"/>
<path d="M2510 1910 c-27 -27 -25 -49 7 -82 l27 -28 -28 0 c-21 0 -27 -4 -24
-17 4 -20 37 -28 74 -19 26 7 33 41 14 76 -7 13 -6 21 5 30 14 12 10 39 -9 52
-19 13 -46 8 -66 -12z"/>
<path d="M2646 1914 c-4 -9 -9 -48 -13 -85 l-6 -69 27 0 26 0 0 85 c0 66 -3
85 -14 85 -8 0 -17 -7 -20 -16z"/>
<path d="M2726 1914 c-3 -9 -6 -47 -6 -85 0 -61 2 -69 19 -69 12 0 23 10 28
27 l10 28 6 -28 c6 -20 13 -27 32 -27 24 0 25 3 26 58 1 31 2 68 3 82 1 33
-31 40 -43 9 l-8 -23 -12 22 c-14 26 -46 29 -55 6z"/>
<path d="M2916 1915 c-9 -9 -21 -34 -28 -57 -14 -47 1 -85 39 -99 25 -9 73 22
73 47 0 17 -22 18 -38 2 -18 -18 -33 9 -25 42 8 34 11 36 27 15 18 -24 46 -13
46 19 0 42 -63 62 -94 31z"/>
<path d="M3057 1923 c-4 -3 -7 -42 -7 -85 l0 -78 56 0 c52 0 55 1 52 22 -2 16
-12 24 -33 28 l-30 6 28 7 c35 9 33 38 -3 47 -23 6 -22 7 13 14 28 5 37 12 37
26 0 17 -7 20 -53 20 -30 0 -57 -3 -60 -7z"/>
<path d="M3324 1918 c-5 -7 -9 -46 -9 -85 0 -68 1 -73 22 -73 19 0 22 7 28 64
4 35 5 72 3 82 -4 23 -33 30 -44 12z"/>
<path d="M3434 1922 c-16 -10 -34 -48 -34 -71 0 -11 9 -27 21 -35 12 -8 18
-19 14 -26 -7 -11 10 -29 27 -30 15 0 48 80 48 114 0 45 -42 71 -76 48z"/>
<path d="M3570 1910 c-25 -25 -26 -74 -2 -92 9 -7 17 -22 17 -33 0 -11 7 -21
16 -23 19 -3 59 73 59 112 0 51 -53 73 -90 36z"/>
<path d="M3723 1923 c-23 -4 -39 -35 -28 -53 4 -6 16 -8 27 -4 20 6 20 3 14
-50 -7 -52 -6 -56 13 -56 14 0 22 8 26 28 3 15 11 43 17 63 19 67 1 86 -69 72z"/>
<path d="M5293 4040 c-40 -16 -19 -50 29 -50 30 0 34 10 18 41 -12 21 -15 22
-47 9z"/>
<path d="M836 3492 c-7 -21 2 -52 14 -52 5 0 16 -3 25 -6 25 -10 15 45 -12 63
-19 13 -22 12 -27 -5z"/>
<path d="M5410 3466 c0 -10 9 -16 21 -16 24 0 21 23 -4 28 -10 2 -17 -3 -17
-12z"/>
<path d="M5325 3370 c-8 -13 5 -13 25 0 13 8 13 10 -2 10 -9 0 -20 -4 -23 -10z"/>
<path d="M863 2713 c-38 -5 -62 -28 -45 -45 12 -12 93 -14 140 -3 30 6 42 27
24 39 -14 9 -84 14 -119 9z"/>
<path d="M4385 1320 c-11 -17 5 -32 21 -19 7 6 11 15 8 20 -7 12 -21 11 -29
-1z"/>
<path d="M4430 1245 c0 -9 5 -15 11 -13 6 2 11 8 11 13 0 5 -5 11 -11 13 -6 2
-11 -4 -11 -13z"/>
<path d="M2136 1154 c-9 -24 -8 -26 16 -22 29 4 38 38 10 38 -11 0 -23 -7 -26
-16z"/>
<path d="M3367 953 c-4 -3 -7 -15 -7 -26 0 -13 5 -17 16 -13 9 3 18 6 20 6 2
0 4 9 4 20 0 19 -20 27 -33 13z"/>
<path d="M3166 935 c-9 -26 -7 -103 4 -110 12 -7 33 63 28 95 -4 28 -23 37
-32 15z"/>
</g>
</svg>
